<svg width="24" height="24" viewBox="0 0 24 24" fill="none" xmlns="http://www.w3.org/2000/svg">
<path d="M2.13793 10.4286C1.50733 10.4286 1 9.90312 1 9.25V2.17857C1 1.52545 1.50733 1 2.13793 1C2.76853 1 3.27586 1.52545 3.27586 2.17857V6.11205L4.22414 4.95804C6.1681 2.54196 9.10302 1 12.3793 1C18.2444 1 23 5.92545 23 12C23 18.0746 18.2444 23 12.3793 23C9.98965 23 7.78017 22.1799 6.0069 20.8C5.50431 20.4071 5.40474 19.6705 5.77931 19.15C6.15388 18.6295 6.86983 18.5263 7.37241 18.9143C8.76638 19.9996 10.497 20.6429 12.3793 20.6429C16.9879 20.6429 20.7241 16.7732 20.7241 12C20.7241 7.22679 16.9879 3.35714 12.3793 3.35714C9.80474 3.35714 7.50043 4.56518 5.96897 6.47054L5.96422 6.48036L4.6556 8.07143H8.96552C9.59612 8.07143 10.1034 8.59687 10.1034 9.25C10.1034 9.90312 9.59612 10.4286 8.96552 10.4286H2.13793Z" fill="white"/>
<path d="M1.216 13.432V12.16H3.432V18H2.008V13.432H1.216ZM4.36781 15C4.36781 14.0827 4.54381 13.36 4.89581 12.832C5.25315 12.304 5.82648 12.04 6.61581 12.04C7.40515 12.04 7.97581 12.304 8.32781 12.832C8.68515 13.36 8.86381 14.0827 8.86381 15C8.86381 15.928 8.68515 16.656 8.32781 17.184C7.97581 17.712 7.40515 17.976 6.61581 17.976C5.82648 17.976 5.25315 17.712 4.89581 17.184C4.54381 16.656 4.36781 15.928 4.36781 15ZM7.51981 15C7.51981 14.4613 7.46115 14.048 7.34381 13.76C7.22648 13.4667 6.98381 13.32 6.61581 13.32C6.24781 13.32 6.00515 13.4667 5.88781 13.76C5.77048 14.048 5.71181 14.4613 5.71181 15C5.71181 15.3627 5.73315 15.664 5.77581 15.904C5.81848 16.1387 5.90381 16.3307 6.03181 16.48C6.16515 16.624 6.35981 16.696 6.61581 16.696C6.87181 16.696 7.06381 16.624 7.19181 16.48C7.32515 16.3307 7.41315 16.1387 7.45581 15.904C7.49848 15.664 7.51981 15.3627 7.51981 15Z" fill="white"/>
</svg>
