<svg width="24" height="24" viewBox="0 0 24 24" fill="none" xmlns="http://www.w3.org/2000/svg">
<path d="M21.8621 10C22.4927 10 23 9.49844 23 8.875V2.125C23 1.50156 22.4927 1 21.8621 1C21.2315 1 20.7241 1.50156 20.7241 2.125V5.87969L19.7759 4.77812C17.8319 2.47187 14.897 1 11.6207 1C5.7556 1 1 5.70156 1 11.5C1 17.2984 5.7556 22 11.6207 22C14.0103 22 16.2198 21.2172 17.9931 19.9C18.4957 19.525 18.5953 18.8219 18.2207 18.325C17.8461 17.8281 17.1302 17.7297 16.6276 18.1C15.2336 19.1359 13.503 19.75 11.6207 19.75C7.01207 19.75 3.27586 16.0562 3.27586 11.5C3.27586 6.94375 7.01207 3.25 11.6207 3.25C14.1953 3.25 16.4996 4.40312 18.031 6.22187L18.0358 6.23125L19.3444 7.75H15.0345C14.4039 7.75 13.8966 8.25156 13.8966 8.875C13.8966 9.49844 14.4039 10 15.0345 10H21.8621Z" fill="white"/>
<path d="M15.216 12.432V11.16H17.432V17H16.008V12.432H15.216ZM18.3678 14C18.3678 13.0827 18.5438 12.36 18.8958 11.832C19.2531 11.304 19.8265 11.04 20.6158 11.04C21.4051 11.04 21.9758 11.304 22.3278 11.832C22.6851 12.36 22.8638 13.0827 22.8638 14C22.8638 14.928 22.6851 15.656 22.3278 16.184C21.9758 16.712 21.4051 16.976 20.6158 16.976C19.8265 16.976 19.2531 16.712 18.8958 16.184C18.5438 15.656 18.3678 14.928 18.3678 14ZM21.5198 14C21.5198 13.4613 21.4611 13.048 21.3438 12.76C21.2265 12.4667 20.9838 12.32 20.6158 12.32C20.2478 12.32 20.0051 12.4667 19.8878 12.76C19.7705 13.048 19.7118 13.4613 19.7118 14C19.7118 14.3627 19.7331 14.664 19.7758 14.904C19.8185 15.1387 19.9038 15.3307 20.0318 15.48C20.1651 15.624 20.3598 15.696 20.6158 15.696C20.8718 15.696 21.0638 15.624 21.1918 15.48C21.3251 15.3307 21.4131 15.1387 21.4558 14.904C21.4985 14.664 21.5198 14.3627 21.5198 14Z" fill="white"/>
</svg>
