<svg width="27" height="24" viewBox="0 0 27 24" fill="none" xmlns="http://www.w3.org/2000/svg">
<path d="M8.99531 9.46406L14.25 4.79531V19.2047L8.99531 14.5359C8.78906 14.3531 8.52187 14.25 8.25 14.25H4.125C3.91875 14.25 3.75 14.0813 3.75 13.875V10.125C3.75 9.91875 3.91875 9.75 4.125 9.75H8.25C8.52656 9.75 8.79375 9.64687 8.99531 9.46406ZM15.1031 1.5C14.7609 1.5 14.4328 1.62656 14.175 1.85156L7.82344 7.5H4.125C2.67656 7.5 1.5 8.67656 1.5 10.125V13.875C1.5 15.3234 2.67656 16.5 4.125 16.5H7.82344L14.175 22.1484C14.4328 22.3734 14.7609 22.5 15.1031 22.5C15.8766 22.5 16.5 21.8766 16.5 21.1031V2.89687C16.5 2.12344 15.8766 1.5 15.1031 1.5ZM23.6766 5.01562C23.1937 4.62188 22.4859 4.69687 22.0922 5.17969C21.6984 5.6625 21.7734 6.37031 22.2562 6.76406C23.7797 8.00156 24.75 9.88594 24.75 12C24.75 14.1141 23.7797 15.9984 22.2562 17.2406C21.7734 17.6344 21.7031 18.3422 22.0922 18.825C22.4812 19.3078 23.1937 19.3781 23.6766 18.9891C25.7016 17.3391 27 14.8219 27 12.0047C27 9.1875 25.7016 6.67031 23.6766 5.02031V5.01562ZM20.8406 8.50781C20.3578 8.11406 19.65 8.18906 19.2562 8.67188C18.8625 9.15469 18.9375 9.8625 19.4203 10.2563C19.9266 10.6688 20.25 11.2969 20.25 12C20.25 12.7031 19.9266 13.3312 19.4203 13.7484C18.9375 14.1422 18.8672 14.85 19.2562 15.3328C19.6453 15.8156 20.3578 15.8859 20.8406 15.4969C21.8484 14.6672 22.5 13.4109 22.5 12C22.5 10.5891 21.8484 9.33281 20.8406 8.50781Z" fill="white"/>
</svg>
